<svg width="877" height="308" viewBox="0 0 877 308" fill="none" xmlns="http://www.w3.org/2000/svg">
<g filter="url(#filter0_d_930_351)">
<rect y="138" width="862" height="124" rx="10" fill="url(#paint0_linear_930_351)" shape-rendering="crispEdges"/>
</g>
<path d="M168.168 271.381C158.776 293.578 137.014 308 112.912 308L-57.0001 308C-90.1371 308 -117 281.137 -117 248L-117 60C-117 26.8629 -90.1371 -3.26207e-05 -57 -2.97237e-05L192.461 -7.91513e-06C235.418 -4.15977e-06 264.458 43.8207 247.718 83.3812L168.168 271.381Z" fill="white"/>
<path d="M590.552 177.56L606.104 217.624C606.701 219.16 607.363 220.227 608.088 220.824C608.856 221.379 609.539 221.677 610.136 221.72V223C608.856 222.915 607.341 222.872 605.592 222.872C603.885 222.829 602.157 222.808 600.408 222.808C598.445 222.808 596.589 222.829 594.84 222.872C593.091 222.872 591.704 222.915 590.68 223V221.72C592.856 221.635 594.221 221.272 594.776 220.632C595.373 219.949 595.245 218.52 594.392 216.344L583.512 186.584L584.664 184.92L574.936 210.264C573.997 212.611 573.421 214.531 573.208 216.024C573.037 217.517 573.144 218.669 573.528 219.48C573.955 220.291 574.616 220.867 575.512 221.208C576.451 221.507 577.56 221.677 578.84 221.72V223C577.432 222.915 576.088 222.872 574.808 222.872C573.528 222.829 572.227 222.808 570.904 222.808C569.965 222.808 569.069 222.829 568.216 222.872C567.405 222.872 566.68 222.915 566.04 223V221.72C566.936 221.549 567.853 220.973 568.792 219.992C569.731 219.011 570.648 217.347 571.544 215L586.136 177.56C586.819 177.603 587.544 177.624 588.312 177.624C589.123 177.624 589.869 177.603 590.552 177.56ZM595.032 204.568V205.848H575.96L576.6 204.568H595.032ZM633.176 189.016C636.504 189.016 639.256 190.381 641.432 193.112C643.65 195.8 644.76 199.96 644.76 205.592C644.76 210.029 644.077 213.592 642.712 216.28C641.389 218.968 639.618 220.909 637.4 222.104C635.181 223.299 632.749 223.896 630.104 223.896C628.354 223.896 626.733 223.597 625.24 223C623.746 222.403 622.466 221.421 621.4 220.056L622.296 219.736C623.064 220.675 623.96 221.379 624.984 221.848C626.05 222.317 627.096 222.552 628.12 222.552C630.466 222.552 632.216 221.229 633.368 218.584C634.52 215.939 635.096 211.907 635.096 206.488C635.096 202.819 634.861 199.917 634.392 197.784C633.965 195.608 633.325 194.072 632.472 193.176C631.618 192.237 630.594 191.768 629.4 191.768C627.906 191.768 626.541 192.387 625.304 193.624C624.066 194.819 623.362 196.504 623.192 198.68L622.872 196.44C623.64 194.008 624.941 192.173 626.776 190.936C628.61 189.656 630.744 189.016 633.176 189.016ZM623.384 172.952V221.72C622.317 221.549 621.229 221.549 620.12 221.72C619.01 221.891 617.986 222.189 617.048 222.616C616.109 223 615.32 223.469 614.68 224.024L613.72 223.448C613.89 222.851 613.997 222.253 614.04 221.656C614.125 221.059 614.168 220.461 614.168 219.864V180.632C614.168 178.712 613.869 177.304 613.272 176.408C612.717 175.469 611.65 175 610.072 175V173.656C611.437 173.784 612.76 173.848 614.04 173.848C615.789 173.848 617.453 173.784 619.032 173.656C620.61 173.485 622.061 173.251 623.384 172.952ZM665.236 189.016C668.35 189.016 671.081 189.592 673.428 190.744C675.774 191.896 677.609 193.752 678.932 196.312C680.254 198.872 680.916 202.264 680.916 206.488C680.916 210.712 680.254 214.104 678.932 216.664C677.609 219.181 675.774 221.016 673.428 222.168C671.081 223.32 668.35 223.896 665.236 223.896C662.206 223.896 659.497 223.32 657.108 222.168C654.761 221.016 652.905 219.181 651.54 216.664C650.217 214.104 649.556 210.712 649.556 206.488C649.556 202.264 650.217 198.872 651.54 196.312C652.905 193.752 654.761 191.896 657.108 190.744C659.497 189.592 662.206 189.016 665.236 189.016ZM665.236 190.296C663.529 190.296 662.1 191.576 660.948 194.136C659.796 196.653 659.22 200.771 659.22 206.488C659.22 212.205 659.796 216.323 660.948 218.84C662.1 221.357 663.529 222.616 665.236 222.616C666.985 222.616 668.414 221.357 669.524 218.84C670.676 216.323 671.252 212.205 671.252 206.488C671.252 200.771 670.676 196.653 669.524 194.136C668.414 191.576 666.985 190.296 665.236 190.296ZM716.783 189.208V216.024C716.783 217.944 717.082 219.373 717.679 220.312C718.276 221.208 719.343 221.656 720.879 221.656V223C719.556 222.872 718.234 222.808 716.911 222.808C715.119 222.808 713.455 222.872 711.919 223C710.383 223.128 708.932 223.363 707.567 223.704V217.944C706.543 220.077 705.114 221.613 703.279 222.552C701.487 223.448 699.482 223.896 697.263 223.896C695.471 223.896 694.02 223.661 692.911 223.192C691.802 222.723 690.927 222.125 690.287 221.4C689.562 220.589 689.05 219.523 688.751 218.2C688.452 216.877 688.303 215.171 688.303 213.08V196.888C688.303 194.968 688.004 193.56 687.407 192.664C686.852 191.725 685.786 191.256 684.207 191.256V189.912C685.572 190.04 686.895 190.104 688.175 190.104C689.967 190.104 691.631 190.04 693.167 189.912C694.746 189.741 696.196 189.507 697.519 189.208V215.704C697.519 216.771 697.604 217.709 697.775 218.52C697.988 219.331 698.372 219.971 698.927 220.44C699.482 220.867 700.292 221.08 701.359 221.08C702.511 221.08 703.535 220.76 704.431 220.12C705.37 219.48 706.116 218.605 706.671 217.496C707.268 216.344 707.567 215.064 707.567 213.656V196.888C707.567 194.968 707.268 193.56 706.671 192.664C706.116 191.725 705.05 191.256 703.471 191.256V189.912C704.836 190.04 706.159 190.104 707.439 190.104C709.231 190.104 710.895 190.04 712.431 189.912C714.01 189.741 715.46 189.507 716.783 189.208ZM736.716 179.416V189.912H744.268V191.192H736.716V217.048C736.716 218.328 736.95 219.245 737.42 219.8C737.889 220.312 738.593 220.568 739.532 220.568C740.3 220.568 741.068 220.291 741.836 219.736C742.604 219.139 743.286 218.136 743.884 216.728L744.972 217.304C744.289 219.224 743.244 220.803 741.836 222.04C740.47 223.277 738.593 223.896 736.204 223.896C734.796 223.896 733.558 223.704 732.492 223.32C731.425 222.979 730.529 222.445 729.804 221.72C728.865 220.781 728.246 219.629 727.948 218.264C727.649 216.856 727.5 215.043 727.5 212.824V191.192H722.123V189.912H727.5V181.464C729.292 181.464 730.934 181.315 732.428 181.016C733.964 180.675 735.393 180.141 736.716 179.416ZM802.132 177.688V178.968C800.766 179.139 799.721 179.501 798.996 180.056C798.313 180.568 797.865 181.4 797.652 182.552C797.438 183.704 797.332 185.325 797.332 187.416V204.376C797.332 207.149 797.14 209.688 796.756 211.992C796.372 214.296 795.689 216.28 794.708 217.944C793.598 219.779 791.977 221.229 789.844 222.296C787.71 223.363 785.001 223.896 781.716 223.896C779.753 223.896 777.748 223.661 775.7 223.192C773.652 222.765 771.817 221.933 770.196 220.696C768.83 219.544 767.785 218.243 767.06 216.792C766.334 215.341 765.844 213.635 765.588 211.672C765.332 209.667 765.204 207.299 765.204 204.568V184.472C765.204 182.893 765.076 181.741 764.82 181.016C764.606 180.248 764.158 179.736 763.476 179.48C762.793 179.181 761.769 179.011 760.404 178.968V177.688C761.47 177.731 762.9 177.773 764.692 177.816C766.526 177.859 768.425 177.88 770.388 177.88C772.35 177.88 774.228 177.859 776.02 177.816C777.854 177.773 779.369 177.731 780.564 177.688V178.968C779.113 179.011 778.004 179.181 777.236 179.48C776.51 179.736 776.02 180.248 775.764 181.016C775.508 181.741 775.38 182.893 775.38 184.472V208.6C775.38 210.733 775.508 212.632 775.764 214.296C776.062 215.917 776.532 217.283 777.172 218.392C777.854 219.459 778.772 220.269 779.924 220.824C781.076 221.379 782.505 221.656 784.212 221.656C787.198 221.656 789.524 220.952 791.188 219.544C792.894 218.136 794.089 216.195 794.772 213.72C795.497 211.203 795.86 208.323 795.86 205.08V188.184C795.86 185.837 795.71 184.045 795.412 182.808C795.113 181.528 794.516 180.611 793.62 180.056C792.766 179.501 791.444 179.139 789.652 178.968V177.688C790.462 177.731 791.529 177.773 792.852 177.816C794.174 177.859 795.412 177.88 796.564 177.88C797.588 177.88 798.59 177.859 799.572 177.816C800.596 177.773 801.449 177.731 802.132 177.688ZM815.958 189.016C817.75 189.016 819.307 189.251 820.63 189.72C821.995 190.147 822.977 190.573 823.574 191C825.025 191.981 825.921 191.341 826.262 189.08H827.606C827.521 190.275 827.457 191.747 827.414 193.496C827.371 195.203 827.35 197.485 827.35 200.344H826.006C825.793 198.765 825.387 197.208 824.79 195.672C824.193 194.136 823.318 192.877 822.166 191.896C821.057 190.915 819.606 190.424 817.814 190.424C816.577 190.424 815.531 190.787 814.678 191.512C813.825 192.195 813.398 193.197 813.398 194.52C813.398 195.8 813.782 196.931 814.55 197.912C815.318 198.851 816.299 199.768 817.494 200.664C818.731 201.517 820.011 202.435 821.334 203.416C822.742 204.483 824.022 205.549 825.174 206.616C826.326 207.64 827.243 208.771 827.926 210.008C828.609 211.245 828.95 212.717 828.95 214.424C828.95 216.344 828.395 218.029 827.286 219.48C826.177 220.888 824.705 221.976 822.87 222.744C821.078 223.512 819.073 223.896 816.854 223.896C815.574 223.896 814.422 223.768 813.398 223.512C812.417 223.256 811.563 222.936 810.838 222.552C810.283 222.296 809.75 222.061 809.238 221.848C808.769 221.592 808.321 221.379 807.894 221.208C807.467 221.08 807.083 221.229 806.742 221.656C806.443 222.083 806.209 222.68 806.038 223.448H804.694C804.779 222.083 804.843 220.419 804.886 218.456C804.929 216.493 804.95 213.891 804.95 210.648H806.294C806.55 212.952 807.019 215 807.702 216.792C808.385 218.541 809.302 219.928 810.454 220.952C811.649 221.933 813.142 222.424 814.934 222.424C815.659 222.424 816.363 222.275 817.046 221.976C817.729 221.677 818.283 221.187 818.71 220.504C819.179 219.821 819.414 218.947 819.414 217.88C819.414 216.003 818.795 214.445 817.558 213.208C816.363 211.971 814.827 210.627 812.95 209.176C811.585 208.067 810.283 206.979 809.046 205.912C807.851 204.803 806.87 203.608 806.102 202.328C805.334 201.005 804.95 199.512 804.95 197.848C804.95 195.928 805.462 194.307 806.486 192.984C807.51 191.661 808.854 190.68 810.518 190.04C812.225 189.357 814.038 189.016 815.958 189.016Z" fill="black"/>
<defs>
<filter id="filter0_d_930_351" x="-15" y="133" width="892" height="154" filterUnits="userSpaceOnUse" color-interpolation-filters="sRGB">
<feFlood flood-opacity="0" result="BackgroundImageFix"/>
<feColorMatrix in="SourceAlpha" type="matrix" values="0 0 0 0 0 0 0 0 0 0 0 0 0 0 0 0 0 0 127 0" result="hardAlpha"/>
<feMorphology radius="5" operator="dilate" in="SourceAlpha" result="effect1_dropShadow_930_351"/>
<feOffset dy="10"/>
<feGaussianBlur stdDeviation="5"/>
<feComposite in2="hardAlpha" operator="out"/>
<feColorMatrix type="matrix" values="0 0 0 0 0 0 0 0 0 0 0 0 0 0 0 0 0 0 0.3 0"/>
<feBlend mode="normal" in2="BackgroundImageFix" result="effect1_dropShadow_930_351"/>
<feBlend mode="normal" in="SourceGraphic" in2="effect1_dropShadow_930_351" result="shape"/>
</filter>
<linearGradient id="paint0_linear_930_351" x1="431" y1="138" x2="431" y2="262" gradientUnits="userSpaceOnUse">
<stop stop-color="#81C839"/>
<stop offset="1" stop-color="#80FF00" stop-opacity="0.62"/>
</linearGradient>
</defs>
</svg>
