<svg width="40" height="41" viewBox="0 0 40 41" fill="none" xmlns="http://www.w3.org/2000/svg">
<path d="M27.5 15.375C27.5 17.4139 26.7098 19.3692 25.3033 20.8109C23.8968 22.2526 21.9891 23.0625 20 23.0625C18.0109 23.0625 16.1032 22.2526 14.6967 20.8109C13.2902 19.3692 12.5 17.4139 12.5 15.375C12.5 13.3361 13.2902 11.3808 14.6967 9.93912C16.1032 8.49743 18.0109 7.6875 20 7.6875C21.9891 7.6875 23.8968 8.49743 25.3033 9.93912C26.7098 11.3808 27.5 13.3361 27.5 15.375Z" fill="url(#paint0_linear_799_382)"/>
<path fill-rule="evenodd" clip-rule="evenodd" d="M0 20.5C0 15.0631 2.10714 9.84881 5.85786 6.00431C9.60859 2.15982 14.6957 0 20 0C25.3043 0 30.3914 2.15982 34.1421 6.00431C37.8929 9.84881 40 15.0631 40 20.5C40 25.9369 37.8929 31.1512 34.1421 34.9957C30.3914 38.8402 25.3043 41 20 41C14.6957 41 9.60859 38.8402 5.85786 34.9957C2.10714 31.1512 0 25.9369 0 20.5ZM20 2.5625C16.7044 2.56268 13.4759 3.51668 10.686 5.3147C7.8961 7.11271 5.65821 9.68166 4.22991 12.7259C2.80161 15.7701 2.24097 19.1658 2.6125 22.5222C2.98403 25.8786 4.27263 29.0593 6.33 31.6981C8.105 28.7666 12.0125 25.625 20 25.625C27.9875 25.625 31.8925 28.7641 33.67 31.6981C35.7274 29.0593 37.016 25.8786 37.3875 22.5222C37.759 19.1658 37.1984 15.7701 35.7701 12.7259C34.3418 9.68166 32.1039 7.11271 29.314 5.3147C26.5241 3.51668 23.2956 2.56268 20 2.5625Z" fill="url(#paint1_linear_799_382)"/>
<defs>
<linearGradient id="paint0_linear_799_382" x1="20" y1="7.6875" x2="20" y2="23.0625" gradientUnits="userSpaceOnUse">
<stop stop-color="#81C839"/>
<stop offset="1" stop-color="#80FF00" stop-opacity="0.62"/>
</linearGradient>
<linearGradient id="paint1_linear_799_382" x1="20" y1="0" x2="20" y2="41" gradientUnits="userSpaceOnUse">
<stop stop-color="#81C839"/>
<stop offset="1" stop-color="#80FF00" stop-opacity="0.62"/>
</linearGradient>
</defs>
</svg>
