<svg width="30" height="30" viewBox="0 0 30 30" fill="none" xmlns="http://www.w3.org/2000/svg">
<path d="M12.5 3.75H5C4.66848 3.75 4.35054 3.8817 4.11612 4.11612C3.8817 4.35054 3.75 4.66848 3.75 5V12.5C3.75 12.8315 3.8817 13.1495 4.11612 13.3839C4.35054 13.6183 4.66848 13.75 5 13.75H12.5C12.8315 13.75 13.1495 13.6183 13.3839 13.3839C13.6183 13.1495 13.75 12.8315 13.75 12.5V5C13.75 4.66848 13.6183 4.35054 13.3839 4.11612C13.1495 3.8817 12.8315 3.75 12.5 3.75ZM11.25 11.25H6.25V6.25H11.25V11.25ZM25 3.75H17.5C17.1685 3.75 16.8505 3.8817 16.6161 4.11612C16.3817 4.35054 16.25 4.66848 16.25 5V12.5C16.25 12.8315 16.3817 13.1495 16.6161 13.3839C16.8505 13.6183 17.1685 13.75 17.5 13.75H25C25.3315 13.75 25.6495 13.6183 25.8839 13.3839C26.1183 13.1495 26.25 12.8315 26.25 12.5V5C26.25 4.66848 26.1183 4.35054 25.8839 4.11612C25.6495 3.8817 25.3315 3.75 25 3.75ZM23.75 11.25H18.75V6.25H23.75V11.25ZM12.5 16.25H5C4.66848 16.25 4.35054 16.3817 4.11612 16.6161C3.8817 16.8505 3.75 17.1685 3.75 17.5V25C3.75 25.3315 3.8817 25.6495 4.11612 25.8839C4.35054 26.1183 4.66848 26.25 5 26.25H12.5C12.8315 26.25 13.1495 26.1183 13.3839 25.8839C13.6183 25.6495 13.75 25.3315 13.75 25V17.5C13.75 17.1685 13.6183 16.8505 13.3839 16.6161C13.1495 16.3817 12.8315 16.25 12.5 16.25ZM11.25 23.75H6.25V18.75H11.25V23.75ZM21.25 16.25C18.4925 16.25 16.25 18.4925 16.25 21.25C16.25 24.0075 18.4925 26.25 21.25 26.25C24.0075 26.25 26.25 24.0075 26.25 21.25C26.25 18.4925 24.0075 16.25 21.25 16.25ZM21.25 23.75C19.8713 23.75 18.75 22.6287 18.75 21.25C18.75 19.8713 19.8713 18.75 21.25 18.75C22.6287 18.75 23.75 19.8713 23.75 21.25C23.75 22.6287 22.6287 23.75 21.25 23.75Z" fill="url(#paint0_linear_799_299)"/>
<defs>
<linearGradient id="paint0_linear_799_299" x1="15" y1="3.75" x2="15" y2="26.25" gradientUnits="userSpaceOnUse">
<stop stop-color="#81C839"/>
<stop offset="1" stop-color="#80FF00" stop-opacity="0.62"/>
</linearGradient>
</defs>
</svg>
