<svg width="80" height="80" viewBox="0 0 80 80" fill="none" xmlns="http://www.w3.org/2000/svg">
<circle cx="40" cy="40" r="40" fill="#F6F9E8"/>
<path d="M53.1343 32.2454H48.7919V27.5894C48.7919 25.0286 47.2286 22.9333 45.3179 22.9333H24.474C22.5633 22.9333 21 25.0286 21 27.5894V48.5416C21 51.1024 22.5633 53.1976 24.474 53.1976C24.474 57.0621 26.8016 60.1817 29.685 60.1817C32.5684 60.1817 34.8959 57.0621 34.8959 53.1976H45.3179C45.3179 57.0621 47.6454 60.1817 50.5289 60.1817C53.4123 60.1817 55.7398 57.0621 55.7398 53.1976H57.4768C58.4322 53.1976 59.2138 52.15 59.2138 50.8696V43.1173C59.2138 42.1162 58.9706 41.1385 58.519 40.3237L54.5239 33.1766C54.1939 32.5946 53.6728 32.2454 53.1343 32.2454ZM29.685 55.5256C28.7296 55.5256 27.948 54.478 27.948 53.1976C27.948 51.9172 28.7296 50.8696 29.685 50.8696C30.6403 50.8696 31.4219 51.9172 31.4219 53.1976C31.4219 54.478 30.6403 55.5256 29.685 55.5256ZM53.1343 35.7375L56.5388 41.5575H48.7919V35.7375H53.1343ZM50.5289 55.5256C49.5735 55.5256 48.7919 54.478 48.7919 53.1976C48.7919 51.9172 49.5735 50.8696 50.5289 50.8696C51.4842 50.8696 52.2658 51.9172 52.2658 53.1976C52.2658 54.478 51.4842 55.5256 50.5289 55.5256Z" fill="#0085FF"/>
</svg>
