<svg width="80" height="80" viewBox="0 0 80 80" fill="none" xmlns="http://www.w3.org/2000/svg">
<circle cx="40" cy="40" r="40" fill="#F6F9E8"/>
<path d="M54.2694 20.9692H26.0337C23.8152 20.9692 22.0202 22.9843 22.0202 25.4471L22 56.7924C22 59.2553 23.8152 61.2703 26.0337 61.2703H54.2694C56.4879 61.2703 58.3031 59.2553 58.3031 56.7924V25.4471C58.3031 22.9843 56.4879 20.9692 54.2694 20.9692ZM50.2357 45.5977H44.1852V52.3145C44.1852 53.546 43.2777 54.5535 42.1684 54.5535H38.1347C37.0255 54.5535 36.1179 53.546 36.1179 52.3145V45.5977H30.0674C28.9581 45.5977 28.0505 44.5902 28.0505 43.3587V38.8808C28.0505 37.6494 28.9581 36.6419 30.0674 36.6419H36.1179V29.925C36.1179 28.6936 37.0255 27.6861 38.1347 27.6861H42.1684C43.2777 27.6861 44.1852 28.6936 44.1852 29.925V36.6419H50.2357C51.345 36.6419 52.2526 37.6494 52.2526 38.8808V43.3587C52.2526 44.5902 51.345 45.5977 50.2357 45.5977Z" fill="#0085FF"/>
</svg>
