<svg width="270" height="391" viewBox="0 0 270 391" fill="none" xmlns="http://www.w3.org/2000/svg">
<g filter="url(#filter0_d_1103_952)">
<rect x="4" width="262" height="380" rx="10" fill="white"/>
<path d="M79.86 321.14C79.86 322.3 79.46 323.267 78.66 324.04C77.8733 324.8 76.6667 325.18 75.04 325.18H72.36V331H70.54V317.06H75.04C76.6133 317.06 77.8067 317.44 78.62 318.2C79.4467 318.96 79.86 319.94 79.86 321.14ZM75.04 323.68C76.0533 323.68 76.8 323.46 77.28 323.02C77.76 322.58 78 321.953 78 321.14C78 319.42 77.0133 318.56 75.04 318.56H72.36V323.68H75.04ZM83.942 321.82C84.262 321.193 84.7154 320.707 85.302 320.36C85.902 320.013 86.6287 319.84 87.482 319.84V321.72H87.002C84.962 321.72 83.942 322.827 83.942 325.04V331H82.122V320.04H83.942V321.82ZM94.363 331.18C93.3363 331.18 92.403 330.947 91.563 330.48C90.7363 330.013 90.083 329.353 89.603 328.5C89.1363 327.633 88.903 326.633 88.903 325.5C88.903 324.38 89.143 323.393 89.623 322.54C90.1163 321.673 90.783 321.013 91.623 320.56C92.463 320.093 93.403 319.86 94.443 319.86C95.483 319.86 96.423 320.093 97.263 320.56C98.103 321.013 98.763 321.667 99.243 322.52C99.7363 323.373 99.983 324.367 99.983 325.5C99.983 326.633 99.7296 327.633 99.223 328.5C98.7296 329.353 98.0563 330.013 97.203 330.48C96.3496 330.947 95.403 331.18 94.363 331.18ZM94.363 329.58C95.0163 329.58 95.6296 329.427 96.203 329.12C96.7763 328.813 97.2363 328.353 97.583 327.74C97.943 327.127 98.123 326.38 98.123 325.5C98.123 324.62 97.9496 323.873 97.603 323.26C97.2563 322.647 96.803 322.193 96.243 321.9C95.683 321.593 95.0763 321.44 94.423 321.44C93.7563 321.44 93.143 321.593 92.583 321.9C92.0363 322.193 91.5963 322.647 91.263 323.26C90.9296 323.873 90.763 324.62 90.763 325.5C90.763 326.393 90.923 327.147 91.243 327.76C91.5763 328.373 92.0163 328.833 92.563 329.14C93.1096 329.433 93.7096 329.58 94.363 329.58ZM101.696 325.48C101.696 324.36 101.923 323.38 102.376 322.54C102.829 321.687 103.449 321.027 104.236 320.56C105.036 320.093 105.929 319.86 106.916 319.86C107.769 319.86 108.563 320.06 109.296 320.46C110.029 320.847 110.589 321.36 110.976 322V316.2H112.816V331H110.976V328.94C110.616 329.593 110.083 330.133 109.376 330.56C108.669 330.973 107.843 331.18 106.896 331.18C105.923 331.18 105.036 330.94 104.236 330.46C103.449 329.98 102.829 329.307 102.376 328.44C101.923 327.573 101.696 326.587 101.696 325.48ZM110.976 325.5C110.976 324.673 110.809 323.953 110.476 323.34C110.143 322.727 109.689 322.26 109.116 321.94C108.556 321.607 107.936 321.44 107.256 321.44C106.576 321.44 105.956 321.6 105.396 321.92C104.836 322.24 104.389 322.707 104.056 323.32C103.723 323.933 103.556 324.653 103.556 325.48C103.556 326.32 103.723 327.053 104.056 327.68C104.389 328.293 104.836 328.767 105.396 329.1C105.956 329.42 106.576 329.58 107.256 329.58C107.936 329.58 108.556 329.42 109.116 329.1C109.689 328.767 110.143 328.293 110.476 327.68C110.809 327.053 110.976 326.327 110.976 325.5ZM125.612 320.04V331H123.792V329.38C123.445 329.94 122.958 330.38 122.332 330.7C121.718 331.007 121.038 331.16 120.292 331.16C119.438 331.16 118.672 330.987 117.992 330.64C117.312 330.28 116.772 329.747 116.372 329.04C115.985 328.333 115.792 327.473 115.792 326.46V320.04H117.592V326.22C117.592 327.3 117.865 328.133 118.412 328.72C118.958 329.293 119.705 329.58 120.652 329.58C121.625 329.58 122.392 329.28 122.952 328.68C123.512 328.08 123.792 327.207 123.792 326.06V320.04H125.612ZM128.005 325.5C128.005 324.367 128.231 323.38 128.685 322.54C129.138 321.687 129.765 321.027 130.565 320.56C131.378 320.093 132.305 319.86 133.345 319.86C134.691 319.86 135.798 320.187 136.665 320.84C137.545 321.493 138.125 322.4 138.405 323.56H136.445C136.258 322.893 135.891 322.367 135.345 321.98C134.811 321.593 134.145 321.4 133.345 321.4C132.305 321.4 131.465 321.76 130.825 322.48C130.185 323.187 129.865 324.193 129.865 325.5C129.865 326.82 130.185 327.84 130.825 328.56C131.465 329.28 132.305 329.64 133.345 329.64C134.145 329.64 134.811 329.453 135.345 329.08C135.878 328.707 136.245 328.173 136.445 327.48H138.405C138.111 328.6 137.525 329.5 136.645 330.18C135.765 330.847 134.665 331.18 133.345 331.18C132.305 331.18 131.378 330.947 130.565 330.48C129.765 330.013 129.138 329.353 128.685 328.5C128.231 327.647 128.005 326.647 128.005 325.5ZM143.053 321.54V328C143.053 328.533 143.166 328.913 143.393 329.14C143.62 329.353 144.013 329.46 144.573 329.46H145.913V331H144.273C143.26 331 142.5 330.767 141.993 330.3C141.486 329.833 141.233 329.067 141.233 328V321.54H139.813V320.04H141.233V317.28H143.053V320.04H145.913V321.54H143.053ZM164.41 331H162.59L155.27 319.9V331H153.45V317.04H155.27L162.59 328.12V317.04H164.41V331ZM166.833 325.48C166.833 324.36 167.059 323.38 167.513 322.54C167.966 321.687 168.586 321.027 169.373 320.56C170.173 320.093 171.059 319.86 172.033 319.86C172.993 319.86 173.826 320.067 174.533 320.48C175.239 320.893 175.766 321.413 176.113 322.04V320.04H177.953V331H176.113V328.96C175.753 329.6 175.213 330.133 174.493 330.56C173.786 330.973 172.959 331.18 172.013 331.18C171.039 331.18 170.159 330.94 169.373 330.46C168.586 329.98 167.966 329.307 167.513 328.44C167.059 327.573 166.833 326.587 166.833 325.48ZM176.113 325.5C176.113 324.673 175.946 323.953 175.613 323.34C175.279 322.727 174.826 322.26 174.253 321.94C173.693 321.607 173.073 321.44 172.393 321.44C171.713 321.44 171.093 321.6 170.533 321.92C169.973 322.24 169.526 322.707 169.193 323.32C168.859 323.933 168.693 324.653 168.693 325.48C168.693 326.32 168.859 327.053 169.193 327.68C169.526 328.293 169.973 328.767 170.533 329.1C171.093 329.42 171.713 329.58 172.393 329.58C173.073 329.58 173.693 329.42 174.253 329.1C174.826 328.767 175.279 328.293 175.613 327.68C175.946 327.053 176.113 326.327 176.113 325.5ZM194.208 319.84C195.062 319.84 195.822 320.02 196.488 320.38C197.155 320.727 197.682 321.253 198.068 321.96C198.455 322.667 198.648 323.527 198.648 324.54V331H196.848V324.8C196.848 323.707 196.575 322.873 196.028 322.3C195.495 321.713 194.768 321.42 193.848 321.42C192.902 321.42 192.148 321.727 191.588 322.34C191.028 322.94 190.748 323.813 190.748 324.96V331H188.948V324.8C188.948 323.707 188.675 322.873 188.128 322.3C187.595 321.713 186.868 321.42 185.948 321.42C185.002 321.42 184.248 321.727 183.688 322.34C183.128 322.94 182.848 323.813 182.848 324.96V331H181.028V320.04H182.848V321.62C183.208 321.047 183.688 320.607 184.288 320.3C184.902 319.993 185.575 319.84 186.308 319.84C187.228 319.84 188.042 320.047 188.748 320.46C189.455 320.873 189.982 321.48 190.328 322.28C190.635 321.507 191.142 320.907 191.848 320.48C192.555 320.053 193.342 319.84 194.208 319.84ZM211.634 325.1C211.634 325.447 211.614 325.813 211.574 326.2H202.814C202.88 327.28 203.247 328.127 203.914 328.74C204.594 329.34 205.414 329.64 206.374 329.64C207.16 329.64 207.814 329.46 208.334 329.1C208.867 328.727 209.24 328.233 209.454 327.62H211.414C211.12 328.673 210.534 329.533 209.654 330.2C208.774 330.853 207.68 331.18 206.374 331.18C205.334 331.18 204.4 330.947 203.574 330.48C202.76 330.013 202.12 329.353 201.654 328.5C201.187 327.633 200.954 326.633 200.954 325.5C200.954 324.367 201.18 323.373 201.634 322.52C202.087 321.667 202.72 321.013 203.534 320.56C204.36 320.093 205.307 319.86 206.374 319.86C207.414 319.86 208.334 320.087 209.134 320.54C209.934 320.993 210.547 321.62 210.974 322.42C211.414 323.207 211.634 324.1 211.634 325.1ZM209.754 324.72C209.754 324.027 209.6 323.433 209.294 322.94C208.987 322.433 208.567 322.053 208.034 321.8C207.514 321.533 206.934 321.4 206.294 321.4C205.374 321.4 204.587 321.693 203.934 322.28C203.294 322.867 202.927 323.68 202.834 324.72H209.754Z" fill="black"/>
<path d="M250.755 3.28943H18.2454C14.7961 3.28943 12 8.3305 12 14.549V290.701C12 296.919 14.7961 301.96 18.2454 301.96H250.755C254.204 301.96 257 296.919 257 290.701V14.549C257 8.3305 254.204 3.28943 250.755 3.28943Z" stroke="#DDDDDD"/>
<path fill-rule="evenodd" clip-rule="evenodd" d="M21.063 20.1687H248.88V268.962H21.063V20.1687Z" fill="#868686"/>
<path fill-rule="evenodd" clip-rule="evenodd" d="M167.14 106.955C167.14 104.826 166.15 103.099 164.928 103.099H105.173C103.952 103.099 102.963 104.826 102.963 106.955V181.8C102.963 183.93 103.952 185.656 105.173 185.656H164.928C166.149 185.656 167.14 183.93 167.14 181.8V106.955Z" stroke="white" stroke-width="2"/>
<path fill-rule="evenodd" clip-rule="evenodd" d="M119.603 142.457C122.817 142.457 125.424 137.923 125.424 132.329C125.424 126.737 122.817 122.2 119.603 122.2C116.389 122.2 113.784 126.737 113.784 132.329C113.784 137.923 116.389 142.457 119.603 142.457Z" stroke="white" stroke-width="2"/>
<path d="M116.877 185.656L136.156 138.394L144.127 157.112L154.377 129.056L167.14 161.358" stroke="white" stroke-width="2"/>
</g>
<defs>
<filter id="filter0_d_1103_952" x="0" y="0" width="270" height="391" filterUnits="userSpaceOnUse" color-interpolation-filters="sRGB">
<feFlood flood-opacity="0" result="BackgroundImageFix"/>
<feColorMatrix in="SourceAlpha" type="matrix" values="0 0 0 0 0 0 0 0 0 0 0 0 0 0 0 0 0 0 127 0" result="hardAlpha"/>
<feOffset dy="7"/>
<feGaussianBlur stdDeviation="2"/>
<feColorMatrix type="matrix" values="0 0 0 0 0 0 0 0 0 0 0 0 0 0 0 0 0 0 0.25 0"/>
<feBlend mode="normal" in2="BackgroundImageFix" result="effect1_dropShadow_1103_952"/>
<feBlend mode="normal" in="SourceGraphic" in2="effect1_dropShadow_1103_952" result="shape"/>
</filter>
</defs>
</svg>
