<svg width="80" height="80" viewBox="0 0 80 80" fill="none" xmlns="http://www.w3.org/2000/svg">
<circle cx="40" cy="40" r="40" fill="#F6F9E8"/>
<path d="M43.6507 37.1667L36.359 31.9604C35.3382 31.2313 33.9819 31.2313 32.9757 31.9604L25.684 37.1667C24.9111 37.7209 24.459 38.5959 24.459 39.5438V51.1667C24.459 51.9688 25.1152 52.625 25.9173 52.625H31.7507V43.875H37.584V52.625H43.4173C44.2194 52.625 44.8757 51.9688 44.8757 51.1667V39.5438C44.8757 38.5959 44.4236 37.7209 43.6507 37.1667Z" fill="#0085FF"/>
<path d="M53.6694 26.375H40.4569C38.8673 26.375 37.584 27.6583 37.584 29.2479L37.7152 29.3792C37.8319 29.4521 37.9486 29.5104 38.0652 29.5833L45.3569 34.7896C46.4652 35.5771 47.2527 36.7438 47.6027 38.0417H50.709V40.9583H47.7923V43.875H50.709V46.7917H47.7923V51.1667V52.625H53.6694C55.259 52.625 56.5423 51.3417 56.5423 49.7521V29.2479C56.5423 27.6583 55.259 26.375 53.6694 26.375ZM50.709 35.125H47.7923V32.2083H50.709V35.125Z" fill="#0085FF"/>
</svg>
